<svg width="32" height="23" viewBox="0 0 32 23" fill="none" xmlns="http://www.w3.org/2000/svg">
<path d="M18.5685 19.7203V17.887C18.5685 16.9145 18.1822 15.9819 17.4945 15.2943C16.8069 14.6066 15.8743 14.2203 14.9018 14.2203H7.56848C6.59602 14.2203 5.66339 14.6066 4.97576 15.2943C4.28813 15.9819 3.90182 16.9145 3.90182 17.887V19.7203" stroke="black" stroke-width="2" stroke-linecap="round" stroke-linejoin="round"/>
<path d="M11.2351 10.5537C13.2602 10.5537 14.9018 8.91205 14.9018 6.887C14.9018 4.86196 13.2602 3.22034 11.2351 3.22034C9.2101 3.22034 7.56848 4.86196 7.56848 6.887C7.56848 8.91205 9.2101 10.5537 11.2351 10.5537Z" stroke="black" stroke-width="2" stroke-linecap="round" stroke-linejoin="round"/>
<path d="M28.4018 15.3453V13.9287C28.4018 13.1772 28.1033 12.4566 27.5719 11.9252C27.0406 11.3938 26.3199 11.0953 25.5685 11.0953H19.9018C19.1504 11.0953 18.4297 11.3938 17.8983 11.9252C17.367 12.4566 17.0685 13.1772 17.0685 13.9287V15.3453" stroke="black" stroke-width="2" stroke-linecap="round" stroke-linejoin="round"/>
<path d="M22.7352 8.262C24.3 8.262 25.5685 6.99348 25.5685 5.42867C25.5685 3.86386 24.3 2.59534 22.7352 2.59534C21.1703 2.59534 19.9018 3.86386 19.9018 5.42867C19.9018 6.99348 21.1703 8.262 22.7352 8.262Z" stroke="black" stroke-width="2" stroke-linecap="round" stroke-linejoin="round"/>
</svg>
